<?xml version="1.0" encoding="UTF-8"?>
<svg xmlns="http://www.w3.org/2000/svg" width="127" height="42" viewBox="0 0 127 42" fill="none">
  <g id="Frame 4">
    <g id="Group">
      <path id="Vector" d="M64.1266 14.8369V36.059H58.3346L51.4967 24.4482H51.4278V36.059H45.8828V14.8369H51.5025L58.4667 26.7984H58.5357V14.8369H64.1266Z" fill="#38302E"></path>
      <path id="Vector_2" d="M75.3547 36.0456C74.4468 35.8293 73.5907 35.5253 72.7805 35.1219C71.9703 34.7185 71.2348 34.2041 70.5567 33.5843C69.8844 32.9646 69.3041 32.2572 68.8214 31.468C68.3388 30.6787 67.9653 29.7784 67.6952 28.7611C67.4251 27.7439 67.293 26.6565 67.293 25.4989C67.293 24.4875 67.4021 23.517 67.6205 22.5816C67.8388 21.6462 68.1549 20.7751 68.5686 19.9625C68.9823 19.1498 69.4995 18.4132 70.1315 17.7467C70.7636 17.0802 71.4704 16.5073 72.2576 16.0337C73.0448 15.5544 73.9469 15.186 74.9525 14.923C75.9581 14.6599 77.0326 14.5312 78.1703 14.5312C79.6872 14.5312 81.2042 14.8703 82.7212 15.5544C84.2381 16.2325 85.554 17.2615 86.6687 18.6295L82.5833 22.1899C82.3419 21.9151 82.0776 21.6637 81.7903 21.424C81.4973 21.1843 81.164 20.9563 80.7962 20.7342C80.4227 20.512 80.009 20.3308 79.5551 20.2022C79.1012 20.0735 78.6415 20.0034 78.1703 20.0034C77.6531 20.0034 77.1532 20.0794 76.6648 20.2197C76.1764 20.36 75.7225 20.5939 75.2972 20.8979C74.872 21.2019 74.5043 21.576 74.1883 22.0087C73.8722 22.4413 73.6251 22.9558 73.4413 23.5521C73.2574 24.1484 73.1712 24.7974 73.1712 25.4989C73.1712 26.2005 73.2861 26.902 73.516 27.5568C73.7458 28.2057 74.0733 28.7845 74.4928 29.2756C74.9123 29.7726 75.4409 30.1643 76.0787 30.4566C76.7165 30.7489 77.4118 30.895 78.176 30.895C78.9862 30.895 79.7964 30.6963 80.6066 30.2987C81.4168 29.9012 82.0776 29.3809 82.589 28.7378L86.6745 32.3098C85.7091 33.5142 84.491 34.4905 83.02 35.2388C81.549 35.9872 79.9343 36.3613 78.176 36.3613C77.1992 36.3613 76.2626 36.2561 75.3547 36.0398V36.0456Z" fill="#38302E"></path>
      <path id="Vector_3" d="M103.349 25.5707C103.913 25.9215 104.355 26.3366 104.677 26.8101C104.999 27.2895 105.228 27.7923 105.378 28.3302C105.527 28.8622 105.602 29.4527 105.602 30.0958C105.602 30.961 105.464 31.7561 105.188 32.4752C104.912 33.1943 104.504 33.8198 103.97 34.3577C103.436 34.8897 102.746 35.3107 101.901 35.6147C101.057 35.9187 100.091 36.0648 99.0111 36.0648H89.4209V14.8369H97.6033C98.7813 14.8369 99.8098 14.9597 100.695 15.1994C101.58 15.4449 102.298 15.7899 102.861 16.24C103.418 16.6902 103.838 17.2339 104.108 17.8653C104.378 18.4967 104.516 19.2158 104.516 20.0226C104.516 20.4903 104.464 20.9288 104.366 21.3438C104.263 21.7589 104.102 22.174 103.872 22.6008C103.642 23.0217 103.309 23.4134 102.878 23.7701C102.442 24.1267 101.924 24.4248 101.321 24.6645V24.723C102.114 24.9393 102.792 25.2199 103.355 25.5707H103.349ZM94.8222 23.2088H96.6437C97.3332 23.2088 97.8791 23.0568 98.2928 22.7587C98.7066 22.4546 98.9077 22.0454 98.9077 21.5192C98.9077 21.1802 98.8272 20.882 98.6663 20.6306C98.5055 20.3792 98.2469 20.1746 97.8906 20.0167C97.5344 19.8589 97.1091 19.7829 96.6035 19.7829H94.828V23.2088H94.8222ZM99.1375 30.6921C99.5972 30.3588 99.827 29.8853 99.827 29.2656C99.827 28.6926 99.6144 28.2308 99.1892 27.8859C98.764 27.5409 98.1205 27.3655 97.2585 27.3655H94.8222V31.189H97.2873C98.063 31.189 98.6778 31.0253 99.1375 30.6921Z" fill="#38302E"></path>
      <path id="Vector_4" d="M120.123 32.6331H113.428L112.383 36.059H106.533L114.101 14.8369H119.433L127.001 36.059H121.168L120.123 32.6331ZM118.663 27.8625L116.801 21.7648H116.744L114.882 27.8625H118.669H118.663Z" fill="#38302E"></path>
    </g>
    <g id="Group_2">
      <g id="Group_3">
        <path id="Vector_5" d="M13.9921 7.86912L8.88379 1.66035L10.8317 0L13.9863 3.84102L17.1294 0L19.0773 1.66035L13.9921 7.86912Z" fill="#38302E"></path>
        <path id="Vector_6" d="M14.0664 30.496L15.3248 32.7234L22.8809 28.2977L15.3535 23.8838L14.0951 26.1054L17.8014 28.2744L14.0664 30.496Z" fill="#38302E"></path>
      </g>
      <path id="Vector_7" d="M20.3639 23.7485L22.8577 21.6146V25.2393L25.4032 26.7301V16.0781L18.0195 22.3746L20.3639 23.7485Z" fill="#38302E"></path>
      <path id="Vector_8" d="M9.39453 17.4141H15.9048L13.2961 19.6416L14.9337 21.6176L22.8806 14.8301H11.5263L9.39453 17.4141Z" fill="#38302E"></path>
      <path id="Vector_9" d="M1.4595 13.8848L0 11.3008H11.1187L5.25766 18.3865L3.30974 16.7203L5.65988 13.8848H1.4595Z" fill="#38302E"></path>
      <path id="Vector_10" d="M1.4595 6.13056L0 8.71462H11.4002L5.53347 1.62891L3.5913 3.2951L5.9357 6.13056H1.4595Z" fill="#38302E"></path>
      <path id="Vector_11" d="M16.9736 12.2475L20.3408 8.17849V12.2475H22.8805V1.09277L13.6523 12.2475H16.9736Z" fill="#38302E"></path>
      <path id="Vector_12" d="M30.6268 9.35611L27.9664 10.6248V6.15234L25.4209 3.09473V14.6879L32.3277 11.4023L30.6268 9.35611Z" fill="#38302E"></path>
      <path id="Vector_13" d="M27.9375 14.8301V17.4843H33.0975L27.9375 21.8515V25.3066L40.2916 14.8301H27.9375Z" fill="#38302E"></path>
      <path id="Vector_14" d="M31.6611 29.0997V26.083L25.4209 29.7662V39.0384L27.9894 37.5301V31.2687L31.6611 29.0997Z" fill="#38302E"></path>
      <path id="Vector_15" d="M20.3411 42.0004L22.8809 40.5037V31.2549L16.2441 35.1602L17.514 37.3935L20.3411 35.7331V42.0004Z" fill="#38302E"></path>
    </g>
  </g>
</svg>
